<?xml version="1.0" encoding="UTF-8" standalone="no"?>
<!-- Uploaded to: SVG Repo, www.svgrepo.com, Transformed by: SVG Repo Mixer Tools -->

<svg
   fill="#000000"
   height="40"
   width="35.000004"
   version="1.1"
   id="Layer_1"
   viewBox="0 0 279.73808 319.70063"
   xml:space="preserve"
   sodipodi:docname="up-arrow-svgrepo-com.svg"
   inkscape:version="1.3.2 (091e20e, 2023-11-25, custom)"
   inkscape:export-filename="up-arrow-3.svg"
   inkscape:export-xdpi="96"
   inkscape:export-ydpi="96"
   xmlns:inkscape="http://www.inkscape.org/namespaces/inkscape"
   xmlns:sodipodi="http://sodipodi.sourceforge.net/DTD/sodipodi-0.dtd"
   xmlns="http://www.w3.org/2000/svg"
   xmlns:svg="http://www.w3.org/2000/svg"><defs
   id="defs8" /><sodipodi:namedview
   id="namedview8"
   pagecolor="#ffffff"
   bordercolor="#000000"
   borderopacity="0.25"
   inkscape:showpageshadow="2"
   inkscape:pageopacity="0.0"
   inkscape:pagecheckerboard="0"
   inkscape:deskcolor="#d1d1d1"
   inkscape:zoom="7.0821164"
   inkscape:cx="31.981965"
   inkscape:cy="28.593148"
   inkscape:window-width="1600"
   inkscape:window-height="837"
   inkscape:window-x="-8"
   inkscape:window-y="-8"
   inkscape:window-maximized="1"
   inkscape:current-layer="SVGRepo_iconCarrier" />





<g
   id="SVGRepo_iconCarrier"
   style="fill:#2c2c2c;fill-opacity:1"
   transform="translate(3.8212882e-5)"> <g
   id="g2"
   style="fill:#b3b3b3;fill-opacity:1"
   transform="matrix(0.93662961,0,0,1.000534,-99.683623,0)"> <g
   id="g1"
   style="fill:#b3b3b3;fill-opacity:1"> <path
   d="m 400.817,178.731 -128,-170.667 c -8.043,-10.752 -26.091,-10.752 -34.133,0 l -128,170.667 c -4.843,6.464 -5.611,15.104 -2.005,22.336 3.627,7.232 10.987,11.797 19.072,11.797 h 64 v 85.333 c 0,11.776 9.536,21.333 21.333,21.333 h 85.333 c 11.797,0 21.333,-9.557 21.333,-21.333 v -85.333 h 64 c 8.085,0 15.467,-4.565 19.093,-11.797 3.606,-7.232 2.838,-15.872 -2.026,-22.336 z"
   id="path1"
   style="fill:#b3b3b3;fill-opacity:1" /> </g> </g>  <g
   id="g6"
   style="fill:#2c2c2c;fill-opacity:1"> <g
   id="g5"
   style="fill:#2c2c2c;fill-opacity:1">  </g> </g>  </g>

</svg>
